<svg width="1046" height="51" viewBox="0 0 1046 51" fill="none" xmlns="http://www.w3.org/2000/svg">
<path d="M0.88 39V3.48H10.096V16.824H23.224V3.48H32.44V39H23.224V24.912H10.096V39H0.88ZM51.9445 39.504C46.6645 39.504 42.8165 38.416 40.4005 36.24C37.9845 34.064 36.7765 30.584 36.7765 25.8C36.7765 21.544 37.8725 18.224 40.0645 15.84C42.2565 13.44 45.4165 12.24 49.5445 12.24C53.4645 12.24 56.4245 13.448 58.4245 15.864C60.4245 18.28 61.4245 21.696 61.4245 26.112V28.392H45.7765C45.9045 30.008 46.4885 31.144 47.5285 31.8C48.5845 32.44 50.4885 32.76 53.2405 32.76C54.2805 32.76 55.3685 32.696 56.5045 32.568C57.6565 32.424 58.7925 32.24 59.9125 32.016V38.688C58.4565 38.976 57.0805 39.184 55.7845 39.312C54.4885 39.44 53.2085 39.504 51.9445 39.504ZM49.4485 17.856C48.2485 17.856 47.3365 18.256 46.7125 19.056C46.1045 19.84 45.7845 21.264 45.7525 23.328H53.0725C53.0245 21.28 52.7045 19.856 52.1125 19.056C51.5365 18.256 50.6485 17.856 49.4485 17.856ZM72.6018 39.504C69.8338 39.504 67.6818 38.784 66.1458 37.344C64.6258 35.888 63.8658 34.016 63.8658 31.728C63.8658 29.184 64.7618 27.192 66.5538 25.752C68.3458 24.312 71.2578 23.472 75.2898 23.232L78.9618 22.992C78.9138 21.52 78.4658 20.496 77.6178 19.92C76.7858 19.328 75.3378 19.032 73.2738 19.032C72.2498 19.032 71.0898 19.12 69.7938 19.296C68.5138 19.456 67.2898 19.704 66.1217 20.04V13.344C67.4818 12.976 68.9538 12.704 70.5378 12.528C72.1218 12.336 73.5938 12.24 74.9538 12.24C77.9458 12.24 80.3858 12.608 82.2738 13.344C84.1618 14.064 85.5458 15.28 86.4258 16.992C87.3218 18.688 87.7698 20.992 87.7698 23.904V39H80.3778L79.7538 36.48H79.3458C78.5778 37.552 77.6098 38.328 76.4418 38.808C75.2738 39.272 73.9938 39.504 72.6018 39.504ZM72.7218 30.84C72.7218 32.488 73.6978 33.312 75.6498 33.312C76.1938 33.312 76.7538 33.232 77.3298 33.072C77.9218 32.912 78.4658 32.632 78.9618 32.232V27.888L76.2738 28.08C75.0098 28.16 74.0978 28.44 73.5378 28.92C72.9938 29.4 72.7218 30.04 72.7218 30.84ZM102.564 39.48C100.596 39.48 98.7803 39.032 97.1163 38.136C95.4683 37.224 94.1403 35.808 93.1323 33.888C92.1243 31.968 91.6203 29.464 91.6203 26.376C91.6203 21.848 92.8603 18.36 95.3403 15.912C97.8363 13.448 101.508 12.216 106.356 12.216C106.804 12.216 107.252 12.232 107.7 12.264C108.148 12.296 108.564 12.328 108.948 12.36V0.215999H117.972V39H110.412L109.86 36.264H109.476C108.724 37.24 107.772 38.024 106.62 38.616C105.468 39.192 104.116 39.48 102.564 39.48ZM105.3 32.136C105.956 32.136 106.604 32.04 107.244 31.848C107.9 31.64 108.468 31.32 108.948 30.888V19.248C108.58 19.184 108.164 19.128 107.7 19.08C107.236 19.032 106.788 19.008 106.356 19.008C104.452 19.008 103.028 19.52 102.084 20.544C101.14 21.552 100.668 23.264 100.668 25.68C100.668 28.192 101.092 29.896 101.94 30.792C102.788 31.688 103.908 32.136 105.3 32.136ZM123.099 39V12.672H132.147V39H123.099ZM127.635 9.504C125.747 9.504 124.363 9.112 123.483 8.328C122.603 7.528 122.163 6.4 122.163 4.944C122.163 3.504 122.603 2.384 123.483 1.584C124.363 0.783998 125.747 0.383998 127.635 0.383998C129.523 0.383998 130.907 0.783998 131.787 1.584C132.667 2.384 133.107 3.504 133.107 4.944C133.107 6.4 132.667 7.528 131.787 8.328C130.907 9.112 129.523 9.504 127.635 9.504ZM137.302 39V12.672H144.742L145.342 15.24H145.726C147.646 13.24 150.158 12.24 153.262 12.24C155.022 12.24 156.59 12.6 157.966 13.32C159.358 14.024 160.446 15.168 161.23 16.752C162.03 18.32 162.43 20.384 162.43 22.944V39H153.406V23.52C153.406 22.176 153.126 21.248 152.566 20.736C152.022 20.224 151.27 19.968 150.31 19.968C149.574 19.968 148.846 20.112 148.126 20.4C147.406 20.688 146.806 21.104 146.326 21.648V39H137.302ZM177.356 50.04C175.9 50.04 174.38 49.96 172.796 49.8C171.228 49.64 169.684 49.376 168.164 49.008V42.024C169.684 42.408 171.164 42.696 172.604 42.888C174.044 43.08 175.38 43.176 176.612 43.176C179.092 43.176 180.876 42.736 181.964 41.856C183.068 40.992 183.62 39.576 183.62 37.608V36.168H183.212C182.46 37.112 181.524 37.84 180.404 38.352C179.284 38.848 178.004 39.096 176.564 39.096C174.756 39.096 173.068 38.64 171.5 37.728C169.948 36.8 168.692 35.4 167.732 33.528C166.772 31.64 166.292 29.248 166.292 26.352C166.292 21.888 167.564 18.424 170.108 15.96C172.652 13.48 176.548 12.24 181.796 12.24C183.588 12.24 185.46 12.376 187.412 12.648C189.364 12.92 191.108 13.304 192.644 13.8V35.904C192.644 40.864 191.388 44.456 188.876 46.68C186.364 48.92 182.524 50.04 177.356 50.04ZM180.116 31.824C180.724 31.824 181.34 31.736 181.964 31.56C182.588 31.384 183.14 31.12 183.62 30.768V19.272C183.252 19.208 182.844 19.152 182.396 19.104C181.948 19.04 181.476 19.008 180.98 19.008C179.172 19.008 177.78 19.512 176.804 20.52C175.828 21.528 175.34 23.224 175.34 25.608C175.34 28.008 175.764 29.648 176.612 30.528C177.46 31.392 178.628 31.824 180.116 31.824ZM215.863 39V14.136L208.063 19.464V10.92L219.151 3.336H225.079V39H215.863ZM242.935 28.992V21.696H260.287V28.992H242.935ZM277.864 39V3.48H303.88V10.776H286.96V17.208H301.408V24.504H286.96V31.704H304.12V39H277.864ZM308.396 39V12.672H315.836L316.436 15.24H316.82C318.74 13.24 321.252 12.24 324.356 12.24C326.116 12.24 327.684 12.6 329.06 13.32C330.452 14.024 331.54 15.168 332.324 16.752C333.124 18.32 333.524 20.384 333.524 22.944V39H324.5V23.52C324.5 22.176 324.22 21.248 323.66 20.736C323.116 20.224 322.364 19.968 321.404 19.968C320.668 19.968 319.94 20.112 319.22 20.4C318.5 20.688 317.9 21.104 317.42 21.648V39H308.396ZM351.762 39.504C347.106 39.504 343.546 38.376 341.082 36.12C338.618 33.848 337.386 30.44 337.386 25.896C337.386 21.288 338.698 17.864 341.322 15.624C343.962 13.368 347.682 12.24 352.482 12.24C354.69 12.24 356.706 12.44 358.53 12.84V19.896C357.698 19.752 356.898 19.648 356.13 19.584C355.362 19.504 354.578 19.464 353.778 19.464C351.282 19.464 349.474 19.968 348.354 20.976C347.234 21.984 346.674 23.6 346.674 25.824C346.674 28.144 347.218 29.808 348.306 30.816C349.394 31.808 351.018 32.304 353.178 32.304C354.01 32.304 354.834 32.24 355.65 32.112C356.482 31.968 357.442 31.76 358.53 31.488V38.544C357.586 38.848 356.53 39.08 355.362 39.24C354.194 39.416 352.994 39.504 351.762 39.504ZM374.309 39.504C370.181 39.504 366.917 38.36 364.517 36.072C362.117 33.784 360.917 30.4 360.917 25.92C360.917 21.376 362.085 17.96 364.421 15.672C366.757 13.384 370.053 12.24 374.309 12.24C378.549 12.24 381.837 13.4 384.173 15.72C386.525 18.024 387.701 21.408 387.701 25.872C387.701 30.384 386.501 33.784 384.101 36.072C381.701 38.36 378.437 39.504 374.309 39.504ZM374.309 32.76C375.717 32.76 376.789 32.28 377.525 31.32C378.261 30.36 378.629 28.56 378.629 25.92C378.629 23.232 378.253 21.408 377.501 20.448C376.749 19.488 375.685 19.008 374.309 19.008C372.917 19.008 371.845 19.488 371.093 20.448C370.341 21.392 369.965 23.2 369.965 25.872C369.965 28.544 370.333 30.36 371.069 31.32C371.821 32.28 372.901 32.76 374.309 32.76ZM402.096 39.48C400.128 39.48 398.312 39.032 396.648 38.136C395 37.224 393.672 35.808 392.664 33.888C391.656 31.968 391.152 29.464 391.152 26.376C391.152 21.848 392.392 18.36 394.872 15.912C397.368 13.448 401.04 12.216 405.888 12.216C406.336 12.216 406.784 12.232 407.232 12.264C407.68 12.296 408.096 12.328 408.48 12.36V0.215999H417.504V39H409.944L409.392 36.264H409.008C408.256 37.24 407.304 38.024 406.152 38.616C405 39.192 403.648 39.48 402.096 39.48ZM404.832 32.136C405.488 32.136 406.136 32.04 406.776 31.848C407.432 31.64 408 31.32 408.48 30.888V19.248C408.112 19.184 407.696 19.128 407.232 19.08C406.768 19.032 406.32 19.008 405.888 19.008C403.984 19.008 402.56 19.52 401.616 20.544C400.672 21.552 400.2 23.264 400.2 25.68C400.2 28.192 400.624 29.896 401.472 30.792C402.32 31.688 403.44 32.136 404.832 32.136ZM436.695 39.504C431.415 39.504 427.567 38.416 425.151 36.24C422.735 34.064 421.527 30.584 421.527 25.8C421.527 21.544 422.623 18.224 424.815 15.84C427.007 13.44 430.167 12.24 434.295 12.24C438.215 12.24 441.175 13.448 443.175 15.864C445.175 18.28 446.175 21.696 446.175 26.112V28.392H430.527C430.655 30.008 431.239 31.144 432.279 31.8C433.335 32.44 435.239 32.76 437.991 32.76C439.031 32.76 440.119 32.696 441.255 32.568C442.407 32.424 443.543 32.24 444.663 32.016V38.688C443.207 38.976 441.831 39.184 440.535 39.312C439.239 39.44 437.959 39.504 436.695 39.504ZM434.199 17.856C432.999 17.856 432.087 18.256 431.463 19.056C430.855 19.84 430.535 21.264 430.503 23.328H437.823C437.775 21.28 437.455 19.856 436.863 19.056C436.287 18.256 435.399 17.856 434.199 17.856ZM472.01 39.48C470.186 39.48 468.378 39.336 466.586 39.048C464.794 38.776 463.162 38.4 461.69 37.92V30.504C463.194 31 464.882 31.392 466.754 31.68C468.626 31.968 470.362 32.112 471.962 32.112C474.138 32.112 475.642 31.816 476.474 31.224C477.322 30.632 477.746 29.832 477.746 28.824C477.746 27.976 477.442 27.304 476.834 26.808C476.226 26.296 475.034 25.808 473.258 25.344L470.33 24.6C467.162 23.816 464.77 22.584 463.154 20.904C461.538 19.208 460.73 16.968 460.73 14.184C460.73 10.664 462.018 7.92 464.594 5.952C467.17 3.984 471.066 3 476.282 3C477.962 3 479.546 3.096 481.034 3.288C482.522 3.48 483.834 3.736 484.97 4.056V11.448C483.866 11.128 482.594 10.872 481.154 10.68C479.714 10.472 478.274 10.368 476.834 10.368C474.146 10.368 472.314 10.688 471.338 11.328C470.362 11.952 469.874 12.736 469.874 13.68C469.874 14.48 470.13 15.112 470.642 15.576C471.17 16.04 472.194 16.48 473.714 16.896L476.666 17.64C480.17 18.504 482.746 19.784 484.394 21.48C486.058 23.176 486.89 25.416 486.89 28.2C486.89 31.672 485.578 34.424 482.954 36.456C480.33 38.472 476.682 39.48 472.01 39.48ZM498.602 39.504C495.834 39.504 493.682 38.784 492.146 37.344C490.626 35.888 489.866 34.016 489.866 31.728C489.866 29.184 490.762 27.192 492.554 25.752C494.346 24.312 497.258 23.472 501.29 23.232L504.962 22.992C504.914 21.52 504.466 20.496 503.618 19.92C502.786 19.328 501.338 19.032 499.274 19.032C498.25 19.032 497.09 19.12 495.794 19.296C494.514 19.456 493.29 19.704 492.122 20.04V13.344C493.482 12.976 494.954 12.704 496.538 12.528C498.122 12.336 499.594 12.24 500.954 12.24C503.946 12.24 506.386 12.608 508.274 13.344C510.162 14.064 511.546 15.28 512.426 16.992C513.322 18.688 513.77 20.992 513.77 23.904V39H506.378L505.754 36.48H505.346C504.578 37.552 503.61 38.328 502.442 38.808C501.274 39.272 499.994 39.504 498.602 39.504ZM498.722 30.84C498.722 32.488 499.698 33.312 501.65 33.312C502.194 33.312 502.754 33.232 503.33 33.072C503.922 32.912 504.466 32.632 504.962 32.232V27.888L502.274 28.08C501.01 28.16 500.098 28.44 499.538 28.92C498.994 29.4 498.722 30.04 498.722 30.84ZM518.724 39V12.672H526.164L526.764 15.24H527.148C529.068 13.24 531.58 12.24 534.684 12.24C536.444 12.24 538.012 12.6 539.388 13.32C540.78 14.024 541.868 15.168 542.652 16.752C543.452 18.32 543.852 20.384 543.852 22.944V39H534.828V23.52C534.828 22.176 534.548 21.248 533.988 20.736C533.444 20.224 532.692 19.968 531.732 19.968C530.996 19.968 530.268 20.112 529.548 20.4C528.828 20.688 528.228 21.104 527.748 21.648V39H518.724ZM557.098 39.504C555.514 39.504 553.962 39.408 552.442 39.216C550.938 39.024 549.546 38.728 548.266 38.328V31.8C549.53 32.184 550.906 32.488 552.394 32.712C553.898 32.92 555.41 33.024 556.93 33.024C558.482 33.024 559.554 32.848 560.146 32.496C560.738 32.144 561.034 31.672 561.034 31.08C561.034 30.632 560.906 30.288 560.65 30.048C560.394 29.808 559.93 29.624 559.258 29.496L554.722 28.704C552.226 28.256 550.394 27.4 549.226 26.136C548.074 24.856 547.498 23.128 547.498 20.952C547.498 18.312 548.57 16.2 550.714 14.616C552.858 13.032 556.154 12.24 560.602 12.24C561.93 12.24 563.234 12.32 564.514 12.48C565.81 12.64 566.946 12.848 567.922 13.104V19.632C566.914 19.36 565.802 19.144 564.586 18.984C563.37 18.824 562.13 18.744 560.866 18.744C558.802 18.744 557.45 18.952 556.81 19.368C556.17 19.768 555.85 20.232 555.85 20.76C555.85 21.16 555.978 21.48 556.234 21.72C556.506 21.944 556.978 22.12 557.65 22.248L562.186 23.04C564.49 23.456 566.266 24.248 567.514 25.416C568.762 26.568 569.386 28.352 569.386 30.768C569.386 33.488 568.306 35.624 566.146 37.176C564.002 38.728 560.986 39.504 557.098 39.504ZM583.37 32.136V27.12L595.25 3.48H604.034L593.354 25.08H600.554L601.442 15.48H608.786V25.08H613.202V32.136H608.786V39H600.554V32.136H583.37ZM631.059 39.48C627.619 39.48 624.811 39.08 622.635 38.28C620.475 37.464 618.883 36.36 617.859 34.968C616.835 33.56 616.323 31.952 616.323 30.144C616.323 28.336 616.851 26.712 617.907 25.272C618.963 23.832 620.515 22.68 622.563 21.816C620.611 20.696 619.235 19.408 618.435 17.952C617.651 16.48 617.259 14.856 617.259 13.08C617.259 10.104 618.443 7.68 620.811 5.808C623.195 3.936 626.771 3 631.539 3C635.683 3 638.899 3.808 641.187 5.424C643.491 7.024 644.643 9.224 644.643 12.024C644.643 13.592 644.251 15.072 643.467 16.464C642.683 17.856 641.315 19.056 639.363 20.064C641.699 21.184 643.315 22.472 644.211 23.928C645.123 25.384 645.579 27.088 645.579 29.04C645.579 31.024 645.043 32.8 643.971 34.368C642.915 35.936 641.307 37.184 639.147 38.112C637.003 39.024 634.307 39.48 631.059 39.48ZM625.899 12.744C625.899 13.496 626.083 14.152 626.451 14.712C626.835 15.272 627.563 15.808 628.635 16.32C629.707 16.816 631.307 17.36 633.435 17.952C634.619 17.232 635.467 16.464 635.979 15.648C636.491 14.832 636.747 13.928 636.747 12.936C636.747 10.488 634.979 9.264 631.443 9.264C629.491 9.264 628.075 9.6 627.195 10.272C626.331 10.928 625.899 11.752 625.899 12.744ZM624.891 29.088C624.891 30.4 625.387 31.416 626.379 32.136C627.387 32.856 628.955 33.216 631.083 33.216C633.163 33.216 634.675 32.896 635.619 32.256C636.563 31.6 637.035 30.704 637.035 29.568C637.035 28.768 636.819 28.08 636.387 27.504C635.971 26.912 635.195 26.368 634.059 25.872C632.939 25.376 631.331 24.872 629.235 24.36C628.931 24.28 628.627 24.2 628.323 24.12C627.123 24.744 626.251 25.504 625.707 26.4C625.163 27.28 624.891 28.176 624.891 29.088ZM649.974 49.56V12.672H657.558L658.086 15.456H658.494C659.23 14.48 660.174 13.704 661.326 13.128C662.478 12.536 663.83 12.24 665.382 12.24C667.35 12.24 669.158 12.688 670.806 13.584C672.47 14.48 673.806 15.896 674.814 17.832C675.838 19.752 676.35 22.248 676.35 25.32C676.35 29.864 675.102 33.368 672.606 35.832C670.11 38.28 666.446 39.504 661.614 39.504C661.15 39.504 660.694 39.488 660.246 39.456C659.814 39.424 659.398 39.392 658.998 39.36V49.56H649.974ZM661.59 32.712C663.494 32.712 664.918 32.208 665.862 31.2C666.806 30.176 667.278 28.448 667.278 26.016C667.278 23.504 666.854 21.8 666.006 20.904C665.158 20.008 664.038 19.56 662.646 19.56C661.99 19.56 661.334 19.664 660.678 19.872C660.038 20.08 659.478 20.4 658.998 20.832V32.472C659.366 32.536 659.782 32.592 660.246 32.64C660.71 32.688 661.158 32.712 661.59 32.712ZM691.842 39.504C688.482 39.504 685.906 38.68 684.114 37.032C682.322 35.368 681.426 32.752 681.426 29.184V19.704H677.394V12.672H681.426L683.105 3.48H690.474V12.672H696.93V19.704H690.474V27.768C690.474 29.432 690.77 30.576 691.362 31.2C691.954 31.808 692.962 32.112 694.386 32.112C694.77 32.112 695.17 32.088 695.586 32.04C696.002 31.992 696.474 31.928 697.002 31.848V38.904C696.298 39.064 695.474 39.2 694.53 39.312C693.602 39.44 692.706 39.504 691.842 39.504ZM726.684 39.48C723.244 39.48 720.436 39.08 718.26 38.28C716.1 37.464 714.508 36.36 713.484 34.968C712.46 33.56 711.948 31.952 711.948 30.144C711.948 28.336 712.476 26.712 713.532 25.272C714.588 23.832 716.14 22.68 718.188 21.816C716.236 20.696 714.86 19.408 714.06 17.952C713.276 16.48 712.884 14.856 712.884 13.08C712.884 10.104 714.068 7.68 716.436 5.808C718.82 3.936 722.396 3 727.164 3C731.308 3 734.524 3.808 736.812 5.424C739.116 7.024 740.268 9.224 740.268 12.024C740.268 13.592 739.876 15.072 739.092 16.464C738.308 17.856 736.94 19.056 734.988 20.064C737.324 21.184 738.94 22.472 739.836 23.928C740.748 25.384 741.204 27.088 741.204 29.04C741.204 31.024 740.668 32.8 739.596 34.368C738.54 35.936 736.932 37.184 734.772 38.112C732.628 39.024 729.932 39.48 726.684 39.48ZM721.524 12.744C721.524 13.496 721.708 14.152 722.076 14.712C722.46 15.272 723.188 15.808 724.26 16.32C725.332 16.816 726.932 17.36 729.06 17.952C730.244 17.232 731.092 16.464 731.604 15.648C732.116 14.832 732.372 13.928 732.372 12.936C732.372 10.488 730.604 9.264 727.068 9.264C725.116 9.264 723.7 9.6 722.82 10.272C721.956 10.928 721.524 11.752 721.524 12.744ZM720.516 29.088C720.516 30.4 721.012 31.416 722.004 32.136C723.012 32.856 724.58 33.216 726.708 33.216C728.788 33.216 730.3 32.896 731.244 32.256C732.188 31.6 732.66 30.704 732.66 29.568C732.66 28.768 732.444 28.08 732.012 27.504C731.596 26.912 730.82 26.368 729.684 25.872C728.564 25.376 726.956 24.872 724.86 24.36C724.556 24.28 724.252 24.2 723.948 24.12C722.748 24.744 721.876 25.504 721.332 26.4C720.788 27.28 720.516 28.176 720.516 29.088ZM759.518 39.48C755.022 39.48 751.502 38.008 748.958 35.064C746.414 32.12 745.142 27.512 745.142 21.24C745.142 14.968 746.414 10.36 748.958 7.416C751.502 4.472 755.022 3 759.518 3C763.998 3 767.51 4.472 770.054 7.416C772.614 10.36 773.894 14.968 773.894 21.24C773.894 27.512 772.614 32.12 770.054 35.064C767.51 38.008 763.998 39.48 759.518 39.48ZM759.518 31.992C760.67 31.992 761.638 31.664 762.422 31.008C763.222 30.352 763.83 29.248 764.246 27.696C764.662 26.128 764.87 23.984 764.87 21.264C764.87 18.512 764.662 16.36 764.246 14.808C763.83 13.24 763.222 12.128 762.422 11.472C761.638 10.816 760.67 10.488 759.518 10.488C758.382 10.488 757.414 10.816 756.614 11.472C755.814 12.128 755.206 13.24 754.79 14.808C754.374 16.36 754.166 18.496 754.166 21.216C754.166 23.968 754.366 26.128 754.766 27.696C755.182 29.248 755.79 30.352 756.59 31.008C757.39 31.664 758.366 31.992 759.518 31.992ZM792.378 39.48C787.882 39.48 784.362 38.008 781.818 35.064C779.274 32.12 778.002 27.512 778.002 21.24C778.002 14.968 779.274 10.36 781.818 7.416C784.362 4.472 787.882 3 792.378 3C796.858 3 800.37 4.472 802.914 7.416C805.474 10.36 806.754 14.968 806.754 21.24C806.754 27.512 805.474 32.12 802.914 35.064C800.37 38.008 796.858 39.48 792.378 39.48ZM792.378 31.992C793.53 31.992 794.498 31.664 795.282 31.008C796.082 30.352 796.69 29.248 797.106 27.696C797.522 26.128 797.73 23.984 797.73 21.264C797.73 18.512 797.522 16.36 797.106 14.808C796.69 13.24 796.082 12.128 795.282 11.472C794.498 10.816 793.53 10.488 792.378 10.488C791.242 10.488 790.274 10.816 789.474 11.472C788.674 12.128 788.066 13.24 787.65 14.808C787.234 16.36 787.026 18.496 787.026 21.216C787.026 23.968 787.226 26.128 787.626 27.696C788.042 29.248 788.65 30.352 789.45 31.008C790.25 31.664 791.226 31.992 792.378 31.992ZM823.528 28.992V21.696H840.88V28.992H823.528ZM867.986 39.48C866.018 39.48 864.202 39.032 862.538 38.136C860.89 37.224 859.562 35.808 858.554 33.888C857.546 31.968 857.042 29.464 857.042 26.376C857.042 21.848 858.282 18.36 860.762 15.912C863.258 13.448 866.93 12.216 871.778 12.216C872.226 12.216 872.674 12.232 873.122 12.264C873.57 12.296 873.986 12.328 874.37 12.36V0.215999H883.394V39H875.834L875.282 36.264H874.898C874.146 37.24 873.194 38.024 872.042 38.616C870.89 39.192 869.538 39.48 867.986 39.48ZM870.722 32.136C871.378 32.136 872.026 32.04 872.666 31.848C873.322 31.64 873.89 31.32 874.37 30.888V19.248C874.002 19.184 873.586 19.128 873.122 19.08C872.658 19.032 872.21 19.008 871.778 19.008C869.874 19.008 868.45 19.52 867.506 20.544C866.562 21.552 866.09 23.264 866.09 25.68C866.09 28.192 866.514 29.896 867.362 30.792C868.21 31.688 869.33 32.136 870.722 32.136ZM902.585 39.504C897.305 39.504 893.457 38.416 891.041 36.24C888.625 34.064 887.417 30.584 887.417 25.8C887.417 21.544 888.513 18.224 890.705 15.84C892.897 13.44 896.057 12.24 900.185 12.24C904.105 12.24 907.065 13.448 909.065 15.864C911.065 18.28 912.065 21.696 912.065 26.112V28.392H896.417C896.545 30.008 897.129 31.144 898.169 31.8C899.225 32.44 901.129 32.76 903.881 32.76C904.921 32.76 906.009 32.696 907.145 32.568C908.297 32.424 909.433 32.24 910.553 32.016V38.688C909.097 38.976 907.721 39.184 906.425 39.312C905.129 39.44 903.849 39.504 902.585 39.504ZM900.089 17.856C898.889 17.856 897.977 18.256 897.353 19.056C896.745 19.84 896.425 21.264 896.393 23.328H903.713C903.665 21.28 903.345 19.856 902.753 19.056C902.177 18.256 901.289 17.856 900.089 17.856ZM924.129 39.504C922.545 39.504 920.993 39.408 919.473 39.216C917.969 39.024 916.577 38.728 915.297 38.328V31.8C916.561 32.184 917.937 32.488 919.425 32.712C920.929 32.92 922.441 33.024 923.961 33.024C925.513 33.024 926.585 32.848 927.177 32.496C927.769 32.144 928.065 31.672 928.065 31.08C928.065 30.632 927.937 30.288 927.681 30.048C927.425 29.808 926.961 29.624 926.289 29.496L921.753 28.704C919.257 28.256 917.425 27.4 916.257 26.136C915.105 24.856 914.529 23.128 914.529 20.952C914.529 18.312 915.601 16.2 917.745 14.616C919.889 13.032 923.185 12.24 927.633 12.24C928.961 12.24 930.265 12.32 931.545 12.48C932.841 12.64 933.977 12.848 934.953 13.104V19.632C933.945 19.36 932.833 19.144 931.617 18.984C930.401 18.824 929.161 18.744 927.897 18.744C925.833 18.744 924.481 18.952 923.841 19.368C923.201 19.768 922.881 20.232 922.881 20.76C922.881 21.16 923.009 21.48 923.265 21.72C923.537 21.944 924.009 22.12 924.681 22.248L929.217 23.04C931.521 23.456 933.297 24.248 934.545 25.416C935.793 26.568 936.417 28.352 936.417 30.768C936.417 33.488 935.337 35.624 933.177 37.176C931.033 38.728 928.017 39.504 924.129 39.504ZM939.99 39V0.215999H949.014V21.864H951.51L957.414 12.672H966.966L959.07 25.272L967.83 39H958.062L951.558 29.04H949.014V39H939.99ZM981.107 39.504C977.747 39.504 975.171 38.68 973.379 37.032C971.587 35.368 970.691 32.752 970.691 29.184V19.704H966.659V12.672H970.691L972.371 3.48H979.739V12.672H986.195V19.704H979.739V27.768C979.739 29.432 980.035 30.576 980.627 31.2C981.219 31.808 982.227 32.112 983.651 32.112C984.035 32.112 984.435 32.088 984.851 32.04C985.267 31.992 985.739 31.928 986.267 31.848V38.904C985.563 39.064 984.739 39.2 983.795 39.312C982.867 39.44 981.971 39.504 981.107 39.504ZM1001.82 39.504C997.697 39.504 994.433 38.36 992.033 36.072C989.633 33.784 988.433 30.4 988.433 25.92C988.433 21.376 989.601 17.96 991.937 15.672C994.273 13.384 997.569 12.24 1001.82 12.24C1006.06 12.24 1009.35 13.4 1011.69 15.72C1014.04 18.024 1015.22 21.408 1015.22 25.872C1015.22 30.384 1014.02 33.784 1011.62 36.072C1009.22 38.36 1005.95 39.504 1001.82 39.504ZM1001.82 32.76C1003.23 32.76 1004.3 32.28 1005.04 31.32C1005.78 30.36 1006.14 28.56 1006.14 25.92C1006.14 23.232 1005.77 21.408 1005.02 20.448C1004.26 19.488 1003.2 19.008 1001.82 19.008C1000.43 19.008 999.361 19.488 998.609 20.448C997.857 21.392 997.481 23.2 997.481 25.872C997.481 28.544 997.849 30.36 998.585 31.32C999.337 32.28 1000.42 32.76 1001.82 32.76ZM1019.26 49.56V12.672H1026.84L1027.37 15.456H1027.78C1028.51 14.48 1029.46 13.704 1030.61 13.128C1031.76 12.536 1033.11 12.24 1034.66 12.24C1036.63 12.24 1038.44 12.688 1040.09 13.584C1041.75 14.48 1043.09 15.896 1044.1 17.832C1045.12 19.752 1045.63 22.248 1045.63 25.32C1045.63 29.864 1044.38 33.368 1041.89 35.832C1039.39 38.28 1035.73 39.504 1030.9 39.504C1030.43 39.504 1029.98 39.488 1029.53 39.456C1029.1 39.424 1028.68 39.392 1028.28 39.36V49.56H1019.26ZM1030.87 32.712C1032.78 32.712 1034.2 32.208 1035.14 31.2C1036.09 30.176 1036.56 28.448 1036.56 26.016C1036.56 23.504 1036.14 21.8 1035.29 20.904C1034.44 20.008 1033.32 19.56 1031.93 19.56C1031.27 19.56 1030.62 19.664 1029.96 19.872C1029.32 20.08 1028.76 20.4 1028.28 20.832V32.472C1028.65 32.536 1029.06 32.592 1029.53 32.64C1029.99 32.688 1030.44 32.712 1030.87 32.712Z" fill="#031D5B"/>
</svg>
